<mxfile host="app.diagrams.net" modified="2024-06-10T16:23:53.464Z" agent="Mozilla/5.0 (X11; Linux x86_64) AppleWebKit/537.36 (KHTML, like Gecko) Chrome/124.0.0.0 Safari/537.36" version="23.0.1" etag="YocWwjmkqjIwhlTlXqRM" type="github">
  <diagram name="PÃ¡gina-1" id="Zb6uNV6-lIenWPkVMMzw">
    <mxGraphModel>
      <root>
        <mxCell id="0" />
        <mxCell id="1" parent="0" />
      </root>
    </mxGraphModel>
  </diagram>
</mxfile>
